<svg xmlns="http://www.w3.org/2000/svg" version="1.1" xmlns:xlink="http://www.w3.org/1999/xlink" xmlns:svgjs="http://svgjs.dev/svgjs" width="1500" height="1500" viewBox="0 0 1500 1500"><rect width="1500" height="1500" fill="#000000"></rect><g transform="matrix(0.6666666666666666,0,0,0.6666666666666666,249.39393939393938,588.6275622892132)"><svg viewBox="0 0 396 128" data-background-color="#ffffff" preserveAspectRatio="xMidYMid meet" height="484" width="1500" xmlns="http://www.w3.org/2000/svg" xmlns:xlink="http://www.w3.org/1999/xlink"><g id="tight-bounds" transform="matrix(1,0,0,1,0.2400000000000091,0.015512480312139587)"><svg viewBox="0 0 395.52 127.96886746222674" height="127.96886746222674" width="395.52"><g><svg viewBox="0 0 621.2498500948204 201.0028310267807" height="127.96886746222674" width="395.52"><g transform="matrix(1,0,0,1,225.7298500948205,59.431886230132896)"><svg viewBox="0 0 395.52 82.13905856651492" height="82.13905856651492" width="395.52"><g id="textblocktransform"><svg viewBox="0 0 395.52 82.13905856651492" height="82.13905856651492" width="395.52" id="textblock"><g><svg viewBox="0 0 395.52 52.37088706187797" height="52.37088706187797" width="395.52"><g transform="matrix(1,0,0,1,0,0)"><svg width="395.52" viewBox="1.17 -36.74 279.67 37.35" height="52.37088706187797" data-palette-color="#ea3c12"><g class="wordmark-text-0" data-fill-palette-color="primary" id="text-0"><path d="M13.09 0L8.33 0 1.17-33.84 5.35-33.84 8.91-15.19Q9.4-12.45 9.92-9.74 10.45-7.03 10.91-4.27L10.91-4.27 11.11-4.27Q11.69-7.03 12.32-9.74 12.94-12.45 13.55-15.19L13.55-15.19 18.43-33.84 22.09-33.84 26.78-15.19Q27.44-12.48 28.08-9.75 28.71-7.03 29.32-4.27L29.32-4.27 29.52-4.27Q30.03-7.03 30.51-9.75 30.98-12.48 31.47-15.19L31.47-15.19 35.23-33.84 39.11-33.84 31.88 0 27.1 0 21.9-20.75Q21.46-22.78 21.04-24.65 20.63-26.51 20.24-28.49L20.24-28.49 20.04-28.49Q19.65-26.51 19.2-24.65 18.75-22.78 18.33-20.75L18.33-20.75 13.09 0ZM54.71 0.61L54.71 0.61Q51.41 0.61 48.72-0.95 46.02-2.51 44.42-5.44 42.82-8.37 42.82-12.45L42.82-12.45Q42.82-16.53 44.42-19.48 46.02-22.44 48.58-24.02 51.14-25.61 54-25.61L54-25.61Q58.71-25.61 61.3-22.46 63.89-19.31 63.89-13.89L63.89-13.89Q63.89-12.52 63.74-11.57L63.74-11.57 46.73-11.57Q46.92-7.5 49.22-5 51.51-2.51 55.17-2.51L55.17-2.51Q57.05-2.51 58.62-3.02 60.18-3.52 61.52-4.42L61.52-4.42 62.91-1.95Q61.28-0.83 59.3-0.11 57.32 0.61 54.71 0.61ZM46.68-14.43L46.68-14.43 60.4-14.43Q60.4-18.36 58.74-20.41 57.08-22.46 54.05-22.46L54.05-22.46Q51.34-22.46 49.2-20.36 47.07-18.26 46.68-14.43ZM80.98 0.61L80.98 0.61Q79.24 0.61 77.36-0.23 75.48-1.07 73.82-2.56L73.82-2.56 73.65-2.56 73.31 0 70.11 0 70.11-36.74 74.07-36.74 74.07-26.64 73.92-22.05Q75.7-23.56 77.74-24.58 79.78-25.61 81.9-25.61L81.9-25.61Q86.79-25.61 89.33-22.14 91.87-18.68 91.87-12.87L91.87-12.87Q91.87-8.62 90.35-5.6 88.84-2.59 86.36-0.99 83.88 0.61 80.98 0.61ZM80.37-2.71L80.37-2.71Q83.56-2.71 85.68-5.43 87.79-8.15 87.79-12.82L87.79-12.82Q87.79-17.04 86.2-19.68 84.61-22.31 80.98-22.31L80.98-22.31Q79.34-22.31 77.64-21.4 75.95-20.48 74.07-18.75L74.07-18.75 74.07-5.4Q75.78-3.93 77.44-3.32 79.1-2.71 80.37-2.71Z" fill="#ffffff" data-fill-palette-color="primary"></path><path d="M122.04 0.61L122.04 0.61Q118.75 0.61 116.11-0.93 113.47-2.47 111.94-5.38 110.4-8.3 110.4-12.45L110.4-12.45Q110.4-16.63 112.06-19.57 113.72-22.51 116.44-24.06 119.16-25.61 122.34-25.61L122.34-25.61Q124.83-25.61 126.58-24.76 128.34-23.9 129.66-22.66L129.66-22.66 127.66-20.19Q126.61-21.17 125.33-21.74 124.05-22.31 122.51-22.31L122.51-22.31Q120.19-22.31 118.37-21.07 116.55-19.82 115.5-17.61 114.45-15.41 114.45-12.45L114.45-12.45Q114.45-8.06 116.65-5.36 118.85-2.66 122.41-2.66L122.41-2.66Q124.19-2.66 125.71-3.34 127.22-4.03 128.37-5.08L128.37-5.08 130.12-2.56Q126.68 0.61 122.04 0.61ZM145.31 0.61L145.31 0.61Q142.28 0.61 139.66-0.93 137.03-2.47 135.43-5.38 133.83-8.3 133.83-12.45L133.83-12.45Q133.83-16.63 135.43-19.57 137.03-22.51 139.66-24.06 142.28-25.61 145.31-25.61L145.31-25.61Q148.38-25.61 151.02-24.06 153.66-22.51 155.26-19.57 156.86-16.63 156.86-12.45L156.86-12.45Q156.86-8.3 155.26-5.38 153.66-2.47 151.02-0.93 148.38 0.61 145.31 0.61ZM145.31-2.66L145.31-2.66Q148.65-2.66 150.73-5.36 152.8-8.06 152.8-12.45L152.8-12.45Q152.8-16.87 150.73-19.59 148.65-22.31 145.31-22.31L145.31-22.31Q143.13-22.31 141.45-21.07 139.77-19.82 138.83-17.61 137.89-15.41 137.89-12.45L137.89-12.45Q137.89-8.06 139.96-5.36 142.04-2.66 145.31-2.66ZM167.52 0L163.57 0 163.57-24.98 166.86-24.98 167.23-21.39 167.33-21.39Q169.13-23.17 171.16-24.39 173.19-25.61 175.77-25.61L175.77-25.61Q179.68-25.61 181.51-23.13 183.34-20.65 183.34-15.87L183.34-15.87 183.34 0 179.44 0 179.44-15.36Q179.44-18.92 178.29-20.56 177.14-22.19 174.53-22.19L174.53-22.19Q172.6-22.19 171.04-21.17 169.47-20.14 167.52-18.19L167.52-18.19 167.52 0ZM195.55 0L191.59 0 191.59-24.98 194.89-24.98 195.25-21.39 195.35-21.39Q197.16-23.17 199.18-24.39 201.21-25.61 203.8-25.61L203.8-25.61Q207.7-25.61 209.54-23.13 211.37-20.65 211.37-15.87L211.37-15.87 211.37 0 207.46 0 207.46-15.36Q207.46-18.92 206.31-20.56 205.17-22.19 202.55-22.19L202.55-22.19Q200.62-22.19 199.06-21.17 197.5-20.14 195.55-18.19L195.55-18.19 195.55 0ZM229.65 0.61L229.65 0.61Q226.35 0.61 223.66-0.95 220.96-2.51 219.36-5.44 217.76-8.37 217.76-12.45L217.76-12.45Q217.76-16.53 219.36-19.48 220.96-22.44 223.52-24.02 226.09-25.61 228.94-25.61L228.94-25.61Q233.65-25.61 236.24-22.46 238.83-19.31 238.83-13.89L238.83-13.89Q238.83-12.52 238.68-11.57L238.68-11.57 221.67-11.57Q221.86-7.5 224.16-5 226.45-2.51 230.11-2.51L230.11-2.51Q231.99-2.51 233.56-3.02 235.12-3.52 236.46-4.42L236.46-4.42 237.85-1.95Q236.22-0.83 234.24-0.11 232.26 0.61 229.65 0.61ZM221.62-14.43L221.62-14.43 235.34-14.43Q235.34-18.36 233.68-20.41 232.02-22.46 228.99-22.46L228.99-22.46Q226.28-22.46 224.15-20.36 222.01-18.26 221.62-14.43ZM254.84 0.61L254.84 0.61Q251.55 0.61 248.91-0.93 246.27-2.47 244.74-5.38 243.2-8.3 243.2-12.45L243.2-12.45Q243.2-16.63 244.86-19.57 246.52-22.51 249.24-24.06 251.96-25.61 255.14-25.61L255.14-25.61Q257.63-25.61 259.38-24.76 261.14-23.9 262.46-22.66L262.46-22.66 260.46-20.19Q259.41-21.17 258.13-21.74 256.85-22.31 255.31-22.31L255.31-22.31Q252.99-22.31 251.17-21.07 249.35-19.82 248.3-17.61 247.25-15.41 247.25-12.45L247.25-12.45Q247.25-8.06 249.45-5.36 251.65-2.66 255.21-2.66L255.21-2.66Q256.99-2.66 258.51-3.34 260.02-4.03 261.17-5.08L261.17-5.08 262.92-2.56Q259.48 0.61 254.84 0.61ZM276.2 0.61L276.2 0.61Q272.27 0.61 270.73-1.66 269.2-3.93 269.2-7.62L269.2-7.62 269.2-21.73 265.49-21.73 265.49-24.78 269.42-24.98 269.88-33.08 273.18-33.08 273.18-24.98 280.04-24.98 280.04-21.73 273.18-21.73 273.18-7.52Q273.18-5.2 274.03-3.91 274.88-2.61 277.08-2.61L277.08-2.61Q277.74-2.61 278.47-2.75 279.21-2.88 279.96-3.22L279.96-3.22 280.84-0.44Q279.84 0 278.64 0.31 277.45 0.61 276.2 0.61Z" fill="#ffffff" data-fill-palette-color="primary"></path></g></svg></g></svg></g><g transform="matrix(1,0,0,1,0,64.73439659589788)"><svg viewBox="0 0 232.209792 17.404661970617042" height="17.404661970617042" width="232.209792"><g transform="matrix(1,0,0,1,0,0)"><svg width="232.209792" viewBox="1.9499999999999997 -35.18 473.54 35.5" height="17.404661970617042" data-palette-color="#ea3c12"><path d="M10.62 0.32L10.62 0.32Q6.15 0.32 4.22-1.12 2.29-2.56 2.17-5.88L2.17-5.88Q1.73-17.43 2.17-28.98L2.17-28.98Q2.29-32.01 4.25-33.58 6.2-35.16 10.57-35.16L10.57-35.16Q15.09-35.16 17.15-33.72 19.21-32.28 19.31-28.96L19.31-28.96Q19.36-28.15 19.36-26.97 19.36-25.78 19.32-24.6 19.29-23.41 19.26-22.58L19.26-22.58 15.87-22.58Q15.92-24.17 15.93-26.05 15.94-27.93 15.87-29.52L15.87-29.52Q15.84-30.98 14.66-31.62 13.48-32.25 10.57-32.25L10.57-32.25Q7.91-32.25 6.77-31.62 5.64-30.98 5.57-29.52L5.57-29.52Q5.18-17.43 5.57-5.32L5.57-5.32Q5.64-3.88 6.77-3.23 7.91-2.59 10.62-2.59L10.62-2.59Q13.67-2.59 14.9-3.23 16.14-3.88 16.21-5.32L16.21-5.32Q16.28-7.03 16.22-9 16.16-10.96 16.09-12.67L16.09-12.67 19.56-12.67Q19.68-10.96 19.7-9.29 19.73-7.62 19.6-5.88L19.6-5.88Q19.46-2.56 17.37-1.12 15.28 0.32 10.62 0.32ZM30.73 0.29L30.73 0.29Q26.76 0.29 25.12-1.07 23.48-2.44 23.36-5.62L23.36-5.62Q23.22-7.42 23.17-9.63 23.12-11.84 23.17-14.09 23.22-16.33 23.36-18.16L23.36-18.16Q23.48-21.34 25.13-22.71 26.78-24.07 30.73-24.07L30.73-24.07Q34.74-24.07 36.34-22.71 37.94-21.34 38.06-18.16L38.06-18.16Q38.21-16.36 38.25-14.15 38.3-11.94 38.25-9.7 38.21-7.47 38.06-5.62L38.06-5.62Q37.94-2.47 36.34-1.09 34.74 0.29 30.73 0.29ZM30.73-2.44L30.73-2.44Q32.98-2.44 33.93-2.99 34.89-3.54 34.96-4.81L34.96-4.81Q35.2-8.62 35.2-11.89 35.2-15.16 34.96-18.97L34.96-18.97Q34.89-20.26 33.96-20.8 33.03-21.34 30.73-21.34L30.73-21.34Q28.44-21.34 27.5-20.8 26.56-20.26 26.49-18.97L26.49-18.97Q26.27-15.16 26.25-11.88 26.24-8.59 26.49-4.81L26.49-4.81Q26.54-3.54 27.52-2.99 28.51-2.44 30.73-2.44ZM45.62-19.19L45.62 0 42.48 0 42.48-23.75 45.62-23.75 45.62-21.53 46.38-21.53Q47.14-22.75 48.37-23.41 49.6-24.07 51.48-24.07L51.48-24.07Q54.24-24.07 55.59-22.86 56.93-21.66 56.93-18.82L56.93-18.82 56.93 0 53.8 0 53.8-19.09Q53.8-20.31 53.03-20.86 52.27-21.41 50.56-21.41L50.56-21.41Q48.85-21.41 47.55-20.83 46.26-20.24 45.62-19.19L45.62-19.19ZM64.52-19.19L64.52 0 61.37 0 61.37-23.75 64.52-23.75 64.52-21.53 65.28-21.53Q66.03-22.75 67.27-23.41 68.5-24.07 70.38-24.07L70.38-24.07Q73.14-24.07 74.48-22.86 75.82-21.66 75.82-18.82L75.82-18.82 75.82 0 72.7 0 72.7-19.09Q72.7-20.31 71.93-20.86 71.16-21.41 69.45-21.41L69.45-21.41Q67.74-21.41 66.45-20.83 65.15-20.24 64.52-19.19L64.52-19.19ZM87.61 0.29L87.61 0.29Q83.58 0.29 81.86-0.98 80.14-2.25 80.02-5.13L80.02-5.13Q79.92-6.93 79.89-9.38 79.85-11.82 79.89-14.28 79.92-16.75 80.02-18.58L80.02-18.58Q80.14-21.53 81.91-22.8 83.68-24.07 87.61-24.07L87.61-24.07Q91.32-24.07 92.98-22.83 94.64-21.58 94.81-18.73L94.81-18.73Q94.86-17.87 94.91-15.75 94.96-13.62 94.77-11.23L94.77-11.23 83.07-11.23Q83.07-9.69 83.1-8.11 83.12-6.52 83.19-4.81L83.19-4.81Q83.22-3.47 84.22-2.95 85.22-2.44 87.51-2.44L87.51-2.44Q89.78-2.44 90.71-2.95 91.64-3.47 91.74-4.81L91.74-4.81Q91.81-6.15 91.74-8.47L91.74-8.47 94.77-8.47Q94.89-7.76 94.88-6.82 94.86-5.88 94.81-5.13L94.81-5.13Q94.64-2.25 93.07-0.98 91.49 0.29 87.61 0.29ZM83.07-13.82L83.07-13.82 91.79-13.82Q91.84-15.48 91.84-16.99 91.84-18.51 91.74-19.07L91.74-19.07Q91.64-20.29 90.69-20.81 89.74-21.34 87.61-21.34L87.61-21.34Q85.24-21.34 84.23-20.81 83.22-20.29 83.19-19.07L83.19-19.07Q83.12-17.65 83.08-16.36 83.05-15.06 83.07-13.82ZM113.37-15.41L113.37-15.41 110.29-15.41Q110.39-16.26 110.38-17.36 110.36-18.46 110.36-19.07L110.36-19.07Q110.34-20.36 109.35-20.85 108.36-21.34 106.12-21.34L106.12-21.34Q103.82-21.34 102.84-20.85 101.87-20.36 101.84-19.07L101.84-19.07Q101.67-15.23 101.67-11.93 101.67-8.62 101.84-4.81L101.84-4.81Q101.87-3.47 102.84-2.95 103.82-2.44 106.09-2.44L106.09-2.44Q108.34-2.44 109.34-2.95 110.34-3.47 110.36-4.81L110.36-4.81Q110.36-5.47 110.38-6.41 110.39-7.35 110.29-8.47L110.29-8.47 113.37-8.47Q113.49-7.76 113.48-6.82 113.46-5.88 113.42-5.13L113.42-5.13Q113.27-2.25 111.62-0.98 109.97 0.29 106.09 0.29L106.09 0.29Q102.18 0.29 100.49-0.98 98.79-2.25 98.67-5.13L98.67-5.13Q98.57-6.93 98.53-9.38 98.5-11.82 98.53-14.28 98.57-16.75 98.67-18.58L98.67-18.58Q98.79-21.53 100.51-22.8 102.23-24.07 106.12-24.07L106.12-24.07Q109.97-24.07 111.67-22.83 113.37-21.58 113.42-18.73L113.42-18.73Q113.46-17.99 113.48-17.05 113.49-16.11 113.37-15.41ZM124.86 0.29L124.86 0.29Q121.05 0.29 119.72-0.98 118.39-2.25 118.39-5.13L118.39-5.13 118.39-21.02 116.05-21.02 116.05-23.75 118.47-23.75 118.47-30.49 121.57-30.49 121.57-23.75 126.94-23.75 126.94-21.02 121.54-21.02 121.54-4.79Q121.54-3.44 122.1-2.93 122.67-2.42 124.94-2.42L124.94-2.42Q125.86-2.42 126.36-2.45 126.86-2.49 127.52-2.51L127.52-2.51 127.52 0.1Q126.94 0.2 126.25 0.24 125.57 0.29 124.86 0.29ZM149.27-11.16L148.12 0 141.85 0 138.97-34.86 142.39-34.86 143.31-21.29 144.51-3.13 145.68-3.13 146.9-21.29 148.25-34.62 154.28-34.62 155.69-21.29 156.77-3.13 157.94-3.13 159.18-21.29 160.19-34.86 163.55-34.86 160.62 0 154.37 0 153.18-11.16 151.93-31.62 150.59-31.62 149.27-11.16ZM171-31.69L171-28.17 167.85-28.17 167.85-31.69 171-31.69ZM171-23.75L171 0 167.82 0 167.82-23.75 171-23.75ZM183.64 0.29L183.64 0.29Q179.83 0.29 178.5-0.98 177.17-2.25 177.17-5.13L177.17-5.13 177.17-21.02 174.83-21.02 174.83-23.75 177.25-23.75 177.25-30.49 180.35-30.49 180.35-23.75 185.72-23.75 185.72-21.02 180.32-21.02 180.32-4.79Q180.32-3.44 180.88-2.93 181.44-2.42 183.72-2.42L183.72-2.42Q184.64-2.42 185.14-2.45 185.64-2.49 186.3-2.51L186.3-2.51 186.3 0.1Q185.72 0.2 185.03 0.24 184.35 0.29 183.64 0.29ZM191.99-19.19L191.99 0 188.84 0 188.84-31.69 191.99-31.69 191.99-21.53 192.75-21.53Q193.6-22.83 194.74-23.45 195.87-24.07 197.85-24.07L197.85-24.07Q200.61-24.07 201.95-22.86 203.29-21.66 203.29-18.82L203.29-18.82 203.29 0 200.17 0 200.17-19.09Q200.17-20.31 199.4-20.86 198.63-21.41 196.92-21.41L196.92-21.41Q193.26-21.41 191.99-19.19L191.99-19.19ZM226.7-9.01L226.7 0 223.26 0 223.26-9.06 216.13-34.86 219.67-34.86 222.36-25.24 224.48-14.26 225.58-14.26 227.58-25.24 230.27-34.86 233.85-34.86 226.7-9.01ZM244.23 0.29L244.23 0.29Q240.25 0.29 238.61-1.07 236.98-2.44 236.85-5.62L236.85-5.62Q236.71-7.42 236.66-9.63 236.61-11.84 236.66-14.09 236.71-16.33 236.85-18.16L236.85-18.16Q236.98-21.34 238.62-22.71 240.27-24.07 244.23-24.07L244.23-24.07Q248.23-24.07 249.83-22.71 251.43-21.34 251.55-18.16L251.55-18.16Q251.7-16.36 251.75-14.15 251.8-11.94 251.75-9.7 251.7-7.47 251.55-5.62L251.55-5.62Q251.43-2.47 249.83-1.09 248.23 0.29 244.23 0.29ZM244.23-2.44L244.23-2.44Q246.47-2.44 247.43-2.99 248.38-3.54 248.45-4.81L248.45-4.81Q248.7-8.62 248.7-11.89 248.7-15.16 248.45-18.97L248.45-18.97Q248.38-20.26 247.45-20.8 246.52-21.34 244.23-21.34L244.23-21.34Q241.93-21.34 240.99-20.8 240.05-20.26 239.98-18.97L239.98-18.97Q239.76-15.16 239.75-11.88 239.74-8.59 239.98-4.81L239.98-4.81Q240.03-3.54 241.02-2.99 242.01-2.44 244.23-2.44ZM261.32 0.29L261.32 0.29Q258.58 0.29 257.2-0.93 255.82-2.15 255.82-4.96L255.82-4.96 255.82-23.75 258.95-23.75 258.95-4.69Q258.95-3.49 259.7-2.93 260.46-2.37 262.17-2.37L262.17-2.37Q263.9-2.37 265.21-2.95 266.52-3.54 267.13-4.59L267.13-4.59 267.13-23.75 270.3-23.75 270.3 0 267.13 0 267.13-2.25 266.47-2.25Q264.86 0.29 261.32 0.29ZM278.09-19.19L278.09 0 274.94 0 274.94-23.75 278.09-23.75 278.09-21.53 278.77-21.53Q279.4-22.75 280.45-23.41 281.5-24.07 283.07-24.07L283.07-24.07Q285.41-24.07 286.54-22.84 287.68-21.61 287.68-18.58L287.68-18.58Q287.68-17.92 287.63-17.02 287.58-16.11 287.48-15.41L287.48-15.41 284.46-15.41Q284.51-15.65 284.52-16.26 284.53-16.87 284.54-17.48 284.55-18.09 284.55-18.31L284.55-18.31Q284.55-20.12 283.94-20.76 283.33-21.41 281.99-21.41L281.99-21.41Q279.13-21.41 278.09-19.19L278.09-19.19ZM315.34-3.13L315.34 0 301.15 0 301.15-34.86 304.54-34.86 304.54-3.13 315.34-3.13ZM325.25 0.29L325.25 0.29Q321.27 0.29 319.63-1.07 317.99-2.44 317.87-5.62L317.87-5.62Q317.73-7.42 317.68-9.63 317.63-11.84 317.68-14.09 317.73-16.33 317.87-18.16L317.87-18.16Q317.99-21.34 319.64-22.71 321.29-24.07 325.25-24.07L325.25-24.07Q329.25-24.07 330.85-22.71 332.45-21.34 332.57-18.16L332.57-18.16Q332.72-16.36 332.77-14.15 332.81-11.94 332.77-9.7 332.72-7.47 332.57-5.62L332.57-5.62Q332.45-2.47 330.85-1.09 329.25 0.29 325.25 0.29ZM325.25-2.44L325.25-2.44Q327.49-2.44 328.44-2.99 329.4-3.54 329.47-4.81L329.47-4.81Q329.71-8.62 329.71-11.89 329.71-15.16 329.47-18.97L329.47-18.97Q329.4-20.26 328.47-20.8 327.54-21.34 325.25-21.34L325.25-21.34Q322.95-21.34 322.01-20.8 321.07-20.26 321-18.97L321-18.97Q320.78-15.16 320.77-11.88 320.75-8.59 321-4.81L321-4.81Q321.05-3.54 322.04-2.99 323.02-2.44 325.25-2.44ZM351.32-23.75L346.56 0 339.99 0 335.47-23.75 338.74-23.75 340.6-11.82 342.33-2.71 344.21-2.71 346.04-11.82 348.02-23.75 351.32-23.75ZM361.69 0.29L361.69 0.29Q357.66 0.29 355.94-0.98 354.22-2.25 354.1-5.13L354.1-5.13Q354-6.93 353.96-9.38 353.93-11.82 353.96-14.28 354-16.75 354.1-18.58L354.1-18.58Q354.22-21.53 355.99-22.8 357.76-24.07 361.69-24.07L361.69-24.07Q365.4-24.07 367.06-22.83 368.72-21.58 368.89-18.73L368.89-18.73Q368.94-17.87 368.99-15.75 369.04-13.62 368.84-11.23L368.84-11.23 357.15-11.23Q357.15-9.69 357.17-8.11 357.2-6.52 357.27-4.81L357.27-4.81Q357.3-3.47 358.3-2.95 359.3-2.44 361.59-2.44L361.59-2.44Q363.86-2.44 364.79-2.95 365.72-3.47 365.82-4.81L365.82-4.81Q365.89-6.15 365.82-8.47L365.82-8.47 368.84-8.47Q368.97-7.76 368.95-6.82 368.94-5.88 368.89-5.13L368.89-5.13Q368.72-2.25 367.15-0.98 365.57 0.29 361.69 0.29ZM357.15-13.82L357.15-13.82 365.87-13.82Q365.91-15.48 365.91-16.99 365.91-18.51 365.82-19.07L365.82-19.07Q365.72-20.29 364.77-20.81 363.81-21.34 361.69-21.34L361.69-21.34Q359.32-21.34 358.31-20.81 357.3-20.29 357.27-19.07L357.27-19.07Q357.2-17.65 357.16-16.36 357.13-15.06 357.15-13.82ZM378.24 0.29L378.24 0.29Q375.48 0.29 374.14-0.93 372.8-2.15 372.72-4.96L372.72-4.96Q372.63-6.96 372.59-9.35 372.55-11.74 372.59-14.21 372.63-16.67 372.72-18.82L372.72-18.82Q372.8-21.66 374.18-22.86 375.56-24.07 378.29-24.07L378.29-24.07Q380.32-24.07 381.48-23.45 382.64-22.83 383.49-21.53L383.49-21.53 384.12-21.53 384.12-31.69 387.25-31.69 387.25 0 384.12 0 384.12-2.25 383.42-2.25Q382.59-1.03 381.43-0.37 380.27 0.29 378.24 0.29ZM379.14-2.37L379.14-2.37Q382.83-2.37 384.12-4.59L384.12-4.59 384.12-19.19Q382.86-21.41 379.17-21.41L379.17-21.41Q377.46-21.41 376.69-20.86 375.92-20.31 375.9-19.09L375.9-19.09Q375.75-15.43 375.78-11.66 375.8-7.89 375.9-4.69L375.9-4.69Q375.95-3.49 376.69-2.93 377.44-2.37 379.14-2.37ZM410.51 0.32L410.51 0.32Q405.73 0.32 403.7-1.12 401.67-2.56 401.55-5.86L401.55-5.86Q401.31-11.79 401.31-17.44 401.31-23.1 401.55-29.03L401.55-29.03Q401.67-32.32 403.7-33.75 405.73-35.18 410.51-35.18L410.51-35.18Q415.27-35.18 417.35-33.75 419.42-32.32 419.45-29.03L419.45-29.03Q419.59-23.07 419.59-17.43 419.59-11.79 419.45-5.86L419.45-5.86Q419.42-2.56 417.35-1.12 415.27 0.32 410.51 0.32ZM410.51-2.61L410.51-2.61Q413.54-2.61 414.76-3.23 415.98-3.86 416.05-5.27L416.05-5.27Q416.4-11.38 416.33-17.53 416.27-23.68 416.05-29.59L416.05-29.59Q415.98-31.03 414.73-31.64 413.49-32.25 410.51-32.25L410.51-32.25Q407.48-32.25 406.25-31.64 405.02-31.03 404.94-29.59L404.94-29.59Q404.6-23.68 404.64-17.53 404.68-11.38 404.94-5.27L404.94-5.27Q405.02-3.86 406.25-3.23 407.48-2.61 410.51-2.61ZM427.01-19.19L427.01 0 423.86 0 423.86-23.75 427.01-23.75 427.01-21.53 427.77-21.53Q428.53-22.75 429.76-23.41 430.99-24.07 432.87-24.07L432.87-24.07Q435.63-24.07 436.97-22.86 438.32-21.66 438.32-18.82L438.32-18.82 438.32 0 435.19 0 435.19-19.09Q435.19-20.31 434.42-20.86 433.65-21.41 431.94-21.41L431.94-21.41Q430.24-21.41 428.94-20.83 427.65-20.24 427.01-19.19L427.01-19.19ZM450.11 0.29L450.11 0.29Q446.08 0.29 444.36-0.98 442.64-2.25 442.51-5.13L442.51-5.13Q442.42-6.93 442.38-9.38 442.34-11.82 442.38-14.28 442.42-16.75 442.51-18.58L442.51-18.58Q442.64-21.53 444.41-22.8 446.18-24.07 450.11-24.07L450.11-24.07Q453.82-24.07 455.48-22.83 457.14-21.58 457.31-18.73L457.31-18.73Q457.36-17.87 457.41-15.75 457.45-13.62 457.26-11.23L457.26-11.23 445.56-11.23Q445.56-9.69 445.59-8.11 445.61-6.52 445.69-4.81L445.69-4.81Q445.71-3.47 446.71-2.95 447.71-2.44 450.01-2.44L450.01-2.44Q452.28-2.44 453.21-2.95 454.13-3.47 454.23-4.81L454.23-4.81Q454.31-6.15 454.23-8.47L454.23-8.47 457.26-8.47Q457.38-7.76 457.37-6.82 457.36-5.88 457.31-5.13L457.31-5.13Q457.14-2.25 455.56-0.98 453.99 0.29 450.11 0.29ZM445.56-13.82L445.56-13.82 454.28-13.82Q454.33-15.48 454.33-16.99 454.33-18.51 454.23-19.07L454.23-19.07Q454.13-20.29 453.18-20.81 452.23-21.34 450.11-21.34L450.11-21.34Q447.74-21.34 446.72-20.81 445.71-20.29 445.69-19.07L445.69-19.07Q445.61-17.65 445.58-16.36 445.54-15.06 445.56-13.82ZM467.95 0.29L467.95 0.29Q464.02 0.29 462.49-0.98 460.97-2.25 460.85-5.13L460.85-5.13Q460.8-5.88 460.78-6.82 460.77-7.76 460.87-8.47L460.87-8.47 463.73-8.47Q463.68-7.35 463.69-6.41 463.7-5.47 463.73-4.81L463.73-4.81Q463.75-3.47 464.67-2.95 465.58-2.44 467.95-2.44L467.95-2.44Q470.37-2.44 471.36-2.95 472.34-3.47 472.42-4.81L472.42-4.81Q472.49-5.64 472.52-6.04 472.54-6.45 472.52-7.2L472.52-7.2Q472.44-8.45 471.86-9.13 471.27-9.81 469.32-10.11L469.32-10.11 466.46-10.77Q464.26-11.23 463.07-11.94 461.87-12.65 461.38-13.78 460.89-14.92 460.8-16.65L460.8-16.65Q460.72-17.53 460.92-18.58L460.92-18.58Q460.97-21.53 462.52-22.8 464.07-24.07 468.17-24.07L468.17-24.07Q472.1-24.07 473.63-22.83 475.15-21.58 475.3-18.73L475.3-18.73Q475.3-17.99 475.29-17.05 475.27-16.11 475.2-15.41L475.2-15.41 472.25-15.41Q472.37-16.26 472.36-17.36 472.34-18.46 472.3-19.07L472.3-19.07Q472.27-20.36 471.4-20.85 470.54-21.34 468.17-21.34L468.17-21.34Q465.78-21.34 464.91-20.85 464.04-20.36 463.95-19.07L463.95-19.07Q463.92-18.46 463.87-18.05 463.82-17.65 463.85-16.94L463.85-16.94Q463.92-16.09 464.1-15.43 464.29-14.77 464.93-14.34 465.58-13.92 467.05-13.7L467.05-13.7 469.78-13.13Q472.76-12.52 474.13-11.24 475.49-9.96 475.49-7.37L475.49-7.37Q475.49-6.84 475.48-6.23 475.47-5.62 475.42-5.05L475.42-5.05Q475.25-2.2 473.63-0.95 472 0.29 467.95 0.29Z" opacity="1" transform="matrix(1,0,0,1,0,0)" fill="#ffffff" class="slogan-text-1" data-fill-palette-color="secondary" id="text-1"></path></svg></g></svg></g></svg></g></svg></g><g><svg viewBox="0 0 201.0028310267807 201.0028310267807" height="201.0028310267807" width="201.0028310267807"><g><svg></svg></g><g id="icon-0"><svg viewBox="0 0 201.0028310267807 201.0028310267807" height="201.0028310267807" width="201.0028310267807"><g><path d="M0 100.501c0-55.505 44.996-100.501 100.501-100.501 55.505 0 100.501 44.996 100.502 100.501 0 55.505-44.996 100.501-100.502 100.502-55.505 0-100.501-44.996-100.501-100.502zM100.501 196.28c52.897 0 95.779-42.882 95.779-95.779 0-52.897-42.882-95.779-95.779-95.778-52.897 0-95.779 42.882-95.778 95.778 0 52.897 42.882 95.779 95.778 95.779z" data-fill-palette-color="accent" fill="#ffffff" stroke="transparent"></path></g><g transform="matrix(1,0,0,1,41.41878539570637,41.417703481111815)"><svg viewBox="0 0 118.16526023536797 118.16742406455708" height="118.16742406455708" width="118.16526023536797"><g><svg xmlns="http://www.w3.org/2000/svg" xmlns:xlink="http://www.w3.org/1999/xlink" version="1.1" x="0" y="0" viewBox="5 4.892347626650256 90.235 90.23665237334976" enable-background="new 0 0 100 100" xml:space="preserve" height="118.16742406455708" width="118.16526023536797" class="icon-dxe-0" data-fill-palette-color="accent" id="dxe-0"><path fill="#ffffff" d="M59.114 5.797L59.052 5.726 58.995 5.775A45.2 45.2 0 0 0 41.064 5.806L40.973 5.725 40.864 5.85C20.411 10.132 5 28.304 5 50.012 5 53.25 5.351 56.408 6.002 59.455L5.997 59.46 6.005 59.468C10.363 79.821 28.483 95.129 50.117 95.129 74.995 95.129 95.235 74.89 95.235 50.012 95.235 28.214 79.696 9.979 59.114 5.797M92.447 58.188C91.211 59.246 84.426 64.851 74.483 69.475 76.609 63.059 77.341 56.826 77.205 51.011H93.21A43 43 0 0 1 92.447 58.188M72.502 34.714C73.989 39.594 74.879 44.361 75.186 49.012H51.117V24.91C55.632 25.239 60.257 26.13 64.986 27.586A72 72 0 0 1 70.738 29.633 72 72 0 0 1 72.502 34.714M65.64 25.695C61.323 24.362 56.417 23.312 51.118 22.969V6.919A43 43 0 0 1 58.047 7.637C59.722 9.679 65.339 16.916 69.699 27.083A74 74 0 0 0 65.64 25.695M49.117 22.877C43.436 22.709 37.346 23.39 31.075 25.398 35.278 16.191 40.327 9.659 41.945 7.68A43 43 0 0 1 49.117 6.918zM49.117 24.802V49.011H24.841C25.146 44.38 26.03 39.634 27.506 34.776A74 74 0 0 1 30.043 27.756C36.146 25.554 42.51 24.563 49.117 24.802M25.612 34.13C24.267 38.544 23.218 43.575 22.903 49.011H7.025C7.076 46.77 7.299 44.571 7.681 42.426 13.911 36.252 20.519 31.692 27.478 28.754A77 77 0 0 0 25.612 34.13M22.822 51.012C22.671 57.415 23.577 64.328 26.234 71.431 19.788 68.513 13.648 64.188 7.836 58.46A43 43 0 0 1 7.025 51.012zM24.747 51.012H49.118V75.934C42.027 76.19 35.216 75.034 28.705 72.478 25.844 65.651 24.525 58.486 24.747 51.012M47.448 77.887C48.01 77.887 48.563 77.866 49.117 77.85V93.104A43 43 0 0 1 42.378 92.42C36.926 86.881 32.739 81.042 29.809 74.925 35.914 77.049 41.863 77.887 47.448 77.887M51.117 77.755C56.414 77.411 61.325 76.374 65.639 75.041A75 75 0 0 0 71.033 73.141C68.081 79.926 63.607 86.377 57.605 92.465A43 43 0 0 1 51.117 93.104zM64.986 73.149C60.257 74.605 55.632 75.496 51.117 75.825V51.012H75.281C75.481 57.784 74.416 64.302 72.086 70.544A73 73 0 0 1 64.986 73.149M77.125 49.012C76.809 43.576 75.76 38.545 74.415 34.131A74 74 0 0 0 73.279 30.713C84.406 35.666 91.886 42.058 92.598 42.678 92.953 44.743 93.16 46.858 93.209 49.012zM91.945 39.551C88.67 36.979 81.665 31.987 72.296 28.105 68.626 18.897 63.847 11.893 61.145 8.329 76.261 12.331 88.144 24.354 91.945 39.551M38.825 8.404C36.294 11.75 32.004 18.045 28.48 26.297 21.88 28.789 15.117 32.819 8.449 38.937 12.39 24.121 24.04 12.422 38.825 8.404M8.726 62.062C14.893 67.665 21.139 71.485 27.258 73.965 29.781 79.814 33.53 85.763 38.885 91.636 24.398 87.722 12.917 76.434 8.726 62.062M61.071 91.715C67.034 85.194 71.01 78.578 73.528 72.109 82.055 68.409 88.486 63.878 91.705 61.375 87.658 76.166 75.922 87.812 61.071 91.715" data-fill-palette-color="accent"></path></svg></g></svg></g></svg></g></svg></g></svg></g><defs></defs></svg><rect width="395.52" height="127.96886746222674" fill="none" stroke="none" visibility="hidden"></rect></g></svg></g></svg>